<svg xmlns="http://www.w3.org/2000/svg" viewBox="0 0 527.68 545.48"><defs><style>.cls-1{fill:#003f88;}.cls-2,.cls-3,.cls-4{fill:none;stroke:#fdc500;stroke-linecap:round;stroke-miterlimit:10;}.cls-2{stroke-width:19.84px;}.cls-3,.cls-4{stroke-width:22.68px;}.cls-4{stroke-dasharray:10.15 45.67;}.cls-5{fill:#fdc500;}</style></defs><g id="Layer_2" data-name="Layer 2"><g id="Layer_1-2" data-name="Layer 1"><path class="cls-1" d="M143.67,248.1a20.36,20.36,0,0,0-20.4,20.4V396a20.4,20.4,0,0,0,40.8,0V268.5A20.36,20.36,0,0,0,143.67,248.1Z"/><path class="cls-1" d="M242.57,248.1a20.36,20.36,0,0,0-20.4,20.4V396a20.4,20.4,0,0,0,40.8,0V268.5A20.49,20.49,0,0,0,242.57,248.1Z"/><path class="cls-1" d="M292.67,449.2h-193c-6.1,0-12.4-7.4-14.6-17.2L41.77,241.1c-2.3-10.1-3.7-33.6,14.6-33.6h377.2c19.7,0,16.9,23.5,14.6,33.6l-15.8,69.7A122.79,122.79,0,0,1,471.42,323L488,250.2c5.1-22.5.2-45.9-13.3-62.7h0c-10.7-13.4-25.3-20.8-41.1-20.8h-36.1C394.07,74.1,327,0,245,0S95.87,74.1,92.47,166.7H56.37c-15.8,0-30.4,7.4-41.1,20.8C1.77,204.3-3.13,227.7,2,250.2L45.27,441c6.5,28.8,28.9,49,54.4,49H305.3A122.9,122.9,0,0,1,292.67,449.2ZM245,40.8c59.6,0,108.4,55.8,111.6,125.9H133.37C136.57,96.7,185.37,40.8,245,40.8Z"/><path class="cls-2" d="M404.13,535.38c-39.05-5.79-89.29-43.71-89.28-101.17,0-58.75,52.53-102,102-102,25,0,45.33,10,58.79,19.38l9.28,7.82"/><path class="cls-3" d="M514.44,405.64q.81,2.66,1.5,5.46"/><path class="cls-4" d="M516.35,456.37A102.17,102.17,0,0,1,464,524.64"/><path class="cls-3" d="M442.73,532.85c-1.82.48-3.67.91-5.53,1.29"/><path class="cls-2" d="M409.65,370.72q1.08,33.63,2.15,67.24l62.8,31.71"/><path class="cls-5" d="M487.06,351.75l14.79-14.05,2.72,41.12a2.07,2.07,0,0,1-2.12,2.38c-2.43.13-41-4.45-41-4.45Z"/><path class="cls-1" d="M361.77,322.22V268.5a20.4,20.4,0,1,0-40.8,0v85.35A124.27,124.27,0,0,1,361.77,322.22Z"/></g></g></svg>