<svg xmlns="http://www.w3.org/2000/svg" viewBox="0 0 35.66 35.66"><defs><style>.cls-1{fill:#003f88;}</style></defs><g id="Layer_2" data-name="Layer 2"><g id="Layer_1-2" data-name="Layer 1"><path class="cls-1" d="M34.55,13.65a3.81,3.81,0,0,0-3-1.52H28.93C28.68,5.39,23.8,0,17.83,0S7,5.39,6.73,12.13H4.1a3.79,3.79,0,0,0-3,1.52,5.41,5.41,0,0,0-1,4.56L3.29,32.1a4.28,4.28,0,0,0,4,3.56H28.4a4.27,4.27,0,0,0,4-3.56l3.15-13.89a5.4,5.4,0,0,0-1-4.56ZM17.83,3C22.17,3,25.72,7,26,12.13H9.71C9.94,7,13.49,3,17.83,3ZM32.62,17.55,29.47,31.44c-.16.71-.62,1.25-1.07,1.25H7.25c-.44,0-.9-.54-1.06-1.25L3,17.55c-.17-.74-.27-2.45,1.06-2.45H31.55c1.44,0,1.23,1.71,1.07,2.45Z"/><path class="cls-1" d="M10.46,18.06A1.48,1.48,0,0,0,9,19.54v9.28a1.49,1.49,0,0,0,3,0V19.54A1.48,1.48,0,0,0,10.46,18.06Z"/><path class="cls-1" d="M17.65,18.06a1.48,1.48,0,0,0-1.48,1.48v9.28a1.49,1.49,0,0,0,3,0V19.54A1.49,1.49,0,0,0,17.65,18.06Z"/><path class="cls-1" d="M24.84,18.06a1.48,1.48,0,0,0-1.48,1.48v9.28a1.49,1.49,0,0,0,3,0V19.54A1.49,1.49,0,0,0,24.84,18.06Z"/></g></g></svg>