<svg xmlns="http://www.w3.org/2000/svg" viewBox="0 0 201.55 244.08"><defs><style>.cls-1{fill:#003f88;}.cls-2,.cls-3,.cls-4{fill:none;stroke:#fdc500;stroke-linecap:round;stroke-miterlimit:10;}.cls-2{stroke-width:9.66px;}.cls-3,.cls-4{stroke-width:11.04px;}.cls-4{stroke-dasharray:4.94 22.23;}.cls-5{fill:#fdc500;}</style></defs><g id="Layer_2" data-name="Layer 2"><g id="Layer_1-2" data-name="Layer 1"><path class="cls-1" d="M88.64,192a61.37,61.37,0,0,1,31.86-53.84c-.25-.5-.51-1-.77-1.48a35.43,35.43,0,0,0-7.15-8.55,86.46,86.46,0,0,0-8.35-6.73,80.12,80.12,0,0,0-10.18-5.71C89.74,113.6,86.31,112,83.8,111s-6.16-2.44-10.92-4.24c-4.24-1.6-7.37-2.83-9.44-3.7s-4.78-2.07-8.15-3.64a48.8,48.8,0,0,1-7.54-4.19,61.24,61.24,0,0,1-5.33-4.44,15.3,15.3,0,0,1-4-5.59,17.8,17.8,0,0,1-1.14-6.48q0-9.17,8.08-15T66.3,58a44.9,44.9,0,0,1,11.53,1.55,60.13,60.13,0,0,1,10,3.5,70.67,70.67,0,0,1,7.89,4.31C98.21,68.9,100,70.08,101,70.9s1.67,1.35,1.94,1.62a4.36,4.36,0,0,0,3.65.94,3.68,3.68,0,0,0,3.11-2.17l10.89-19.64a3.91,3.91,0,0,0-.67-5.13c-.54-.54-1.2-1.18-2-1.89a61.22,61.22,0,0,0-5.25-3.92,65.36,65.36,0,0,0-8.55-5.05,86.53,86.53,0,0,0-11.73-4.51A74.65,74.65,0,0,0,77.49,28V4.31A4.14,4.14,0,0,0,73.18,0H55a4.14,4.14,0,0,0-3,1.28,4.14,4.14,0,0,0-1.28,3V28.54Q29.5,32.61,16.3,46.6T3.09,79.2A46.41,46.41,0,0,0,4.23,89.72a53.2,53.2,0,0,0,2.83,9,32.6,32.6,0,0,0,4.78,7.81,82.85,82.85,0,0,0,5.87,6.61,48.74,48.74,0,0,0,7.22,5.71q4.42,3,7.61,4.79c2.12,1.23,4.93,2.61,8.43,4.18s6.26,2.76,8.28,3.58,4.78,1.94,8.28,3.37c4.85,1.9,8.45,3.35,10.79,4.39s5.3,2.46,8.9,4.31a37.06,37.06,0,0,1,7.88,5.05,25.94,25.94,0,0,1,4.51,5.67,13.55,13.55,0,0,1,2,7.15q0,10.63-8.28,16.43a32.59,32.59,0,0,1-19.19,5.8,47,47,0,0,1-10-1.09q-17.52-3.51-32.75-16.85l-.27-.28a3.35,3.35,0,0,0-3.23-1.2,4.29,4.29,0,0,0-3.11,1.62L1,183.93c-1.36,1.8-1.26,3.62.27,5.52.47.52,1.23,1.33,2.37,2.41a72.48,72.48,0,0,0,6.26,5.06,89.8,89.8,0,0,0,10,6.48,90,90,0,0,0,13.67,6,83.25,83.25,0,0,0,17.18,4.19v23.59A4.37,4.37,0,0,0,55,241.47H73.18a4.14,4.14,0,0,0,4.31-4.31V213.57a65.32,65.32,0,0,0,13.78-3.75A61.63,61.63,0,0,1,88.64,192Z"/><path class="cls-2" d="M141.38,239.17c-19-2.83-43.48-21.29-43.48-49.27,0-28.62,25.58-49.66,49.66-49.66,12.19,0,22.07,4.89,28.63,9.44l4.51,3.81"/><path class="cls-3" d="M195.1,176c.27.87.51,1.75.73,2.66"/><path class="cls-4" d="M196,200.69a49.74,49.74,0,0,1-25.49,33.24"/><path class="cls-3" d="M160.18,237.94c-.89.23-1.79.44-2.69.62"/><path class="cls-2" d="M175.7,207.17l-30.58-15.45L144.07,159"/><path class="cls-5" d="M181.77,149.74l7.2-6.84,1.33,20a1,1,0,0,1-1,1.16c-1.18.07-20-2.16-20-2.16Z"/></g></g></svg>