<svg xmlns="http://www.w3.org/2000/svg" viewBox="0 0 125.74 241.47"><defs><style>.cls-1{fill:#003f88;}</style></defs><g id="Layer_2" data-name="Layer 2"><g id="Layer_1-2" data-name="Layer 1"><path class="cls-1" d="M125.74,159.68q0,20.63-13.41,35.51T77.49,213.57v23.59a4.14,4.14,0,0,1-4.31,4.31H55a4.37,4.37,0,0,1-4.31-4.31V213.57a83.25,83.25,0,0,1-17.18-4.19,90,90,0,0,1-13.67-6,89.8,89.8,0,0,1-10-6.48,72.48,72.48,0,0,1-6.26-5.06c-1.14-1.08-1.9-1.89-2.37-2.41-1.53-1.9-1.63-3.72-.27-5.52l13.87-18.19a4.29,4.29,0,0,1,3.11-1.62,3.35,3.35,0,0,1,3.23,1.2l.27.28q15.23,13.34,32.75,16.85a47,47,0,0,0,10,1.09,32.59,32.59,0,0,0,19.19-5.8q8.28-5.79,8.28-16.43a13.55,13.55,0,0,0-2-7.15,25.94,25.94,0,0,0-4.51-5.67,37.06,37.06,0,0,0-7.88-5.05q-5.4-2.77-8.9-4.31c-2.34-1-5.94-2.49-10.79-4.39-3.5-1.43-6.26-2.56-8.28-3.37s-4.78-2-8.28-3.58-6.31-3-8.43-4.18-4.66-2.81-7.61-4.79a48.74,48.74,0,0,1-7.22-5.71,82.85,82.85,0,0,1-5.87-6.61,32.6,32.6,0,0,1-4.78-7.81,53.2,53.2,0,0,1-2.83-9A46.41,46.41,0,0,1,3.09,79.2q0-18.58,13.21-32.6T50.68,28.54V4.31a4.14,4.14,0,0,1,1.28-3A4.14,4.14,0,0,1,55,0H73.18a4.14,4.14,0,0,1,4.31,4.31V28a74.65,74.65,0,0,1,14.88,3.11,86.53,86.53,0,0,1,11.73,4.51,65.36,65.36,0,0,1,8.55,5.05,61.22,61.22,0,0,1,5.25,3.92c.82.71,1.48,1.35,2,1.89a3.91,3.91,0,0,1,.67,5.13L109.7,71.29a3.68,3.68,0,0,1-3.11,2.17,4.36,4.36,0,0,1-3.65-.94c-.27-.27-.91-.81-1.94-1.62s-2.79-2-5.25-3.58A70.67,70.67,0,0,0,87.86,63a60.13,60.13,0,0,0-10-3.5A44.9,44.9,0,0,0,66.3,58q-12.78,0-20.9,5.79t-8.08,15a17.8,17.8,0,0,0,1.14,6.48,15.3,15.3,0,0,0,4,5.59,61.24,61.24,0,0,0,5.33,4.44,48.8,48.8,0,0,0,7.54,4.19c3.37,1.57,6.08,2.78,8.15,3.64s5.2,2.1,9.44,3.7c4.76,1.8,8.4,3.2,10.92,4.24s5.94,2.61,10.25,4.71a80.12,80.12,0,0,1,10.18,5.71,86.46,86.46,0,0,1,8.35,6.73,35.43,35.43,0,0,1,7.15,8.55A48.44,48.44,0,0,1,124,147a43.45,43.45,0,0,1,1.78,12.69Z"/></g></g></svg>